<svg width="20" height="21" viewBox="0 0 20 21" fill="none" xmlns="http://www.w3.org/2000/svg">
<g id="Icon-glass" clip-path="url(#clip0_13_68)">
<path id="Vector" d="M16.25 8.625C16.25 10.418 15.668 12.0742 14.6875 13.418L19.6328 18.3672C20.1211 18.8555 20.1211 19.6484 19.6328 20.1367C19.1445 20.625 18.3516 20.625 17.8633 20.1367L12.918 15.1875C11.5742 16.1719 9.91797 16.75 8.125 16.75C3.63672 16.75 0 13.1133 0 8.625C0 4.13672 3.63672 0.5 8.125 0.5C12.6133 0.5 16.25 4.13672 16.25 8.625ZM8.125 14.25C8.86369 14.25 9.59514 14.1045 10.2776 13.8218C10.9601 13.5391 11.5801 13.1248 12.1025 12.6025C12.6248 12.0801 13.0391 11.4601 13.3218 10.7776C13.6045 10.0951 13.75 9.36369 13.75 8.625C13.75 7.88631 13.6045 7.15486 13.3218 6.47241C13.0391 5.78995 12.6248 5.16985 12.1025 4.64752C11.5801 4.12519 10.9601 3.71086 10.2776 3.42818C9.59514 3.14549 8.86369 3 8.125 3C7.38631 3 6.65486 3.14549 5.97241 3.42818C5.28995 3.71086 4.66985 4.12519 4.14752 4.64752C3.62519 5.16985 3.21086 5.78995 2.92818 6.47241C2.64549 7.15486 2.5 7.88631 2.5 8.625C2.5 9.36369 2.64549 10.0951 2.92818 10.7776C3.21086 11.4601 3.62519 12.0801 4.14752 12.6025C4.66985 13.1248 5.28995 13.5391 5.97241 13.8218C6.65486 14.1045 7.38631 14.25 8.125 14.25Z" fill="black"/>
</g>
<defs>
<clipPath id="clip0_13_68">
<rect width="20" height="20" fill="white" transform="translate(0 0.5)"/>
</clipPath>
</defs>
</svg>
